<svg xmlns="http://www.w3.org/2000/svg" viewBox="0 0 32 32">
  <defs>
    <linearGradient id="grad" x1="0%" y1="0%" x2="100%" y2="100%">
      <stop offset="0%" style="stop-color:#6366f1"/>
      <stop offset="100%" style="stop-color:#8b5cf6"/>
    </linearGradient>
  </defs>
  <!-- Background rounded square -->
  <rect x="2" y="2" width="28" height="28" rx="6" fill="url(#grad)"/>
  <!-- Left puzzle piece with tab on right -->
  <path d="M6 9 h6 v3 a2 2 0 1 0 0 4 v3 h-6 a1 1 0 0 1-1-1 v-8 a1 1 0 0 1 1-1z"
        fill="white" fill-opacity="0.85"/>
  <!-- Right puzzle piece with notch on left -->
  <path d="M14 9 h6 a1 1 0 0 1 1 1 v8 a1 1 0 0 1-1 1 h-6 v-3 a2 2 0 1 1 0-4 z"
        fill="white"/>
</svg>
