<svg xmlns="http://www.w3.org/2000/svg" viewBox="0 0 192 192">
  <defs>
    <linearGradient id="grad" x1="0%" y1="0%" x2="100%" y2="100%">
      <stop offset="0%" style="stop-color:#6366f1"/>
      <stop offset="100%" style="stop-color:#8b5cf6"/>
    </linearGradient>
  </defs>
  <!-- Background rounded square -->
  <rect x="12" y="12" width="168" height="168" rx="36" fill="url(#grad)"/>
  <!-- Left puzzle piece with tab on right -->
  <path d="M36 54 h36 v18 a12 12 0 1 0 0 24 v18 h-36 a6 6 0 0 1-6-6 v-48 a6 6 0 0 1 6-6z"
        fill="white" fill-opacity="0.85"/>
  <!-- Right puzzle piece with notch on left -->
  <path d="M84 54 h36 a6 6 0 0 1 6 6 v48 a6 6 0 0 1-6 6 h-36 v-18 a12 12 0 1 1 0-24 z"
        fill="white"/>
</svg>
